<?xml version="1.0" encoding="UTF-8"?>
<!DOCTYPE svg PUBLIC "-//W3C//DTD SVG 1.1//EN" "http://www.w3.org/Graphics/SVG/1.1/DTD/svg11.dtd">
<svg xmlns="http://www.w3.org/2000/svg" version="1.1" width="326px" height="800px" style="shape-rendering:geometricPrecision; text-rendering:geometricPrecision; image-rendering:optimizeQuality; fill-rule:evenodd; clip-rule:evenodd" xmlns:xlink="http://www.w3.org/1999/xlink">
<g><path style="opacity:0.987" fill="#c9c9c9" d="M 179.5,27.5 C 179.389,28.1174 179.056,28.6174 178.5,29C 173,29.1667 167.5,29.3333 162,29.5C 156.124,29.4952 150.624,28.8286 145.5,27.5C 143.431,17.1377 146.764,8.97106 155.5,3C 164.369,0.185764 171.536,2.68576 177,10.5C 178.163,16.103 178.996,21.7697 179.5,27.5 Z"/></g>
<g><path style="opacity:0.988" fill="#000000" d="M 145.5,27.5 C 150.624,28.8286 156.124,29.4952 162,29.5C 167.5,29.3333 173,29.1667 178.5,29C 179.056,28.6174 179.389,28.1174 179.5,27.5C 245.419,31.9577 291.586,64.2911 318,124.5C 320.073,130.053 321.74,135.72 323,141.5C 323.667,280.833 323.667,420.167 323,559.5C 308.006,615.496 272.84,652.329 217.5,670C 210.651,672.137 203.651,673.303 196.5,673.5C 173.833,672.167 151.167,672.167 128.5,673.5C 71.157,663.97 30.9903,632.637 8,579.5C 5.92837,573.952 4.26171,568.285 3,562.5C 1.34323,424.863 1.0099,287.196 2,149.5C 4.41949,133.907 9.41949,119.241 17,105.5C 17.3333,102.833 17.6667,100.167 18,97.5C 35.5607,68.961 60.0607,48.7943 91.5,37C 109.045,31.2237 127.045,28.0571 145.5,27.5 Z"/></g>
<g><path style="opacity:1" fill="#fd0000" d="M 175.5,67.5 C 175.611,68.1174 175.944,68.6174 176.5,69C 180.514,69.8374 184.514,70.6708 188.5,71.5C 203.09,76.4612 215.757,84.4612 226.5,95.5C 226.427,97.0269 227.094,98.0269 228.5,98.5C 234.728,104.406 239.395,111.406 242.5,119.5C 242.166,122.491 243.166,124.824 245.5,126.5C 246.301,128.042 246.634,129.708 246.5,131.5C 249.567,147.372 250.234,163.372 248.5,179.5C 241.381,206.939 225.381,227.272 200.5,240.5C 198.326,240.75 196.659,241.75 195.5,243.5C 194.833,243.5 194.167,243.5 193.5,243.5C 190.053,244.083 187.053,245.416 184.5,247.5C 170.604,250.522 156.604,251.188 142.5,249.5C 140.898,247.926 138.898,247.259 136.5,247.5C 136.167,247.5 135.833,247.5 135.5,247.5C 133.485,246.076 131.152,245.41 128.5,245.5C 126.5,244.833 124.5,244.167 122.5,243.5C 122.027,242.094 121.027,241.427 119.5,241.5C 111.749,238.733 105.083,234.4 99.5,228.5C 98.4154,226.413 96.7488,225.08 94.5,224.5C 90.1256,220.128 86.1256,215.461 82.5,210.5C 82.573,208.973 81.9063,207.973 80.5,207.5C 76.7192,200.069 73.3859,192.402 70.5,184.5C 69.4915,179.717 68.4915,175.05 67.5,170.5C 67.5,170.167 67.5,169.833 67.5,169.5C 67.41,159.482 67.7433,149.482 68.5,139.5C 68.5,139.167 68.5,138.833 68.5,138.5C 70.4725,135.916 71.4725,132.916 71.5,129.5C 72.4412,124.06 74.4412,119.06 77.5,114.5C 78.9063,114.027 79.573,113.027 79.5,111.5C 80.7589,107.975 82.7589,104.975 85.5,102.5C 87.5869,101.415 88.9202,99.7488 89.5,97.5C 97.4582,87.8701 107.125,80.5367 118.5,75.5C 124.983,73.4185 131.316,71.0852 137.5,68.5C 149.995,66.3168 162.662,65.9834 175.5,67.5 Z"/></g>
<g><path style="opacity:1" fill="#b40002" d="M 175.5,67.5 C 180.169,68.0901 184.503,69.4234 188.5,71.5C 184.514,70.6708 180.514,69.8374 176.5,69C 175.944,68.6174 175.611,68.1174 175.5,67.5 Z"/></g>
<g><path style="opacity:1" fill="#a80003" d="M 137.5,68.5 C 131.316,71.0852 124.983,73.4185 118.5,75.5C 124.248,71.8037 130.581,69.4703 137.5,68.5 Z"/></g>
<g><path style="opacity:1" fill="#930003" d="M 226.5,95.5 C 227.906,95.9731 228.573,96.9731 228.5,98.5C 227.094,98.0269 226.427,97.0269 226.5,95.5 Z"/></g>
<g><path style="opacity:1" fill="#970003" d="M 89.5,97.5 C 88.9202,99.7488 87.5869,101.415 85.5,102.5C 86.0798,100.251 87.4131,98.5846 89.5,97.5 Z"/></g>
<g><path style="opacity:1" fill="#830002" d="M 79.5,111.5 C 79.573,113.027 78.9063,114.027 77.5,114.5C 77.427,112.973 78.0937,111.973 79.5,111.5 Z"/></g>
<g><path style="opacity:1" fill="#9e0003" d="M 242.5,119.5 C 244.065,121.509 245.065,123.843 245.5,126.5C 243.166,124.824 242.166,122.491 242.5,119.5 Z"/></g>
<g><path style="opacity:1" fill="#a80003" d="M 71.5,129.5 C 71.4725,132.916 70.4725,135.916 68.5,138.5C 68.6896,135.145 69.6896,132.145 71.5,129.5 Z"/></g>
<g><path style="opacity:1" fill="#b20003" d="M 246.5,131.5 C 249.741,139.202 251.408,147.369 251.5,156C 251.262,164.071 250.262,171.905 248.5,179.5C 250.234,163.372 249.567,147.372 246.5,131.5 Z"/></g>
<g><path style="opacity:1" fill="#950001" d="M 68.5,139.5 C 67.7433,149.482 67.41,159.482 67.5,169.5C 66.3431,161.01 66.1764,152.343 67,143.5C 67.21,141.942 67.71,140.609 68.5,139.5 Z"/></g>
<g><path style="opacity:1" fill="#690102" d="M 67.5,170.5 C 68.4915,175.05 69.4915,179.717 70.5,184.5C 68.0439,180.262 67.0439,175.596 67.5,170.5 Z"/></g>
<g><path style="opacity:1" fill="#580101" d="M 80.5,207.5 C 81.9063,207.973 82.573,208.973 82.5,210.5C 81.0937,210.027 80.427,209.027 80.5,207.5 Z"/></g>
<g><path style="opacity:1" fill="#990003" d="M 94.5,224.5 C 96.7488,225.08 98.4154,226.413 99.5,228.5C 97.2512,227.92 95.5846,226.587 94.5,224.5 Z"/></g>
<g><path style="opacity:1" fill="#390800" d="M 200.5,240.5 C 199.514,242.408 197.848,243.408 195.5,243.5C 196.659,241.75 198.326,240.75 200.5,240.5 Z"/></g>
<g><path style="opacity:1" fill="#6b0002" d="M 119.5,241.5 C 121.027,241.427 122.027,242.094 122.5,243.5C 120.973,243.573 119.973,242.906 119.5,241.5 Z"/></g>
<g><path style="opacity:1" fill="#830002" d="M 128.5,245.5 C 131.152,245.41 133.485,246.076 135.5,247.5C 132.848,247.59 130.515,246.924 128.5,245.5 Z"/></g>
<g><path style="opacity:1" fill="#4b0301" d="M 193.5,243.5 C 190.947,245.584 187.947,246.917 184.5,247.5C 187.053,245.416 190.053,244.083 193.5,243.5 Z"/></g>
<g><path style="opacity:1" fill="#6a0102" d="M 136.5,247.5 C 138.898,247.259 140.898,247.926 142.5,249.5C 140.102,249.741 138.102,249.074 136.5,247.5 Z"/></g>
<g><path style="opacity:1" fill="#896d36" d="M 154.5,258.5 C 151.026,259.525 147.36,260.192 143.5,260.5C 146.845,258.783 150.511,258.116 154.5,258.5 Z"/></g>
<g><path style="opacity:1" fill="#45371d" d="M 170.5,258.5 C 173.518,258.335 176.518,258.502 179.5,259C 180.416,259.278 181.082,259.778 181.5,260.5C 177.64,260.192 173.974,259.525 170.5,258.5 Z"/></g>
<g><path style="opacity:1" fill="#fdc85b" d="M 154.5,258.5 C 159.833,258.5 165.167,258.5 170.5,258.5C 173.974,259.525 177.64,260.192 181.5,260.5C 219.568,269.901 243.234,293.568 252.5,331.5C 252.41,334.152 253.076,336.485 254.5,338.5C 257.118,382.449 239.118,414.615 200.5,435C 180.653,443.97 160.319,445.803 139.5,440.5C 137.485,439.076 135.152,438.41 132.5,438.5C 103.845,428.011 84.345,408.345 74,379.5C 68.7912,362.556 68.2912,345.556 72.5,328.5C 73.9238,326.485 74.5905,324.152 74.5,321.5C 84.4279,293.239 103.428,273.905 131.5,263.5C 134.152,263.59 136.485,262.924 138.5,261.5C 140.042,260.699 141.708,260.366 143.5,260.5C 147.36,260.192 151.026,259.525 154.5,258.5 Z"/></g>
<g><path style="opacity:1" fill="#a3823f" d="M 138.5,261.5 C 136.485,262.924 134.152,263.59 131.5,263.5C 133.515,262.076 135.848,261.41 138.5,261.5 Z"/></g>
<g><path style="opacity:1" fill="#af8c44" d="M 74.5,321.5 C 74.5905,324.152 73.9238,326.485 72.5,328.5C 72.4095,325.848 73.0762,323.515 74.5,321.5 Z"/></g>
<g><path style="opacity:1" fill="#5b4924" d="M 252.5,331.5 C 253.924,333.515 254.59,335.848 254.5,338.5C 253.076,336.485 252.41,334.152 252.5,331.5 Z"/></g>
<g><path style="opacity:1" fill="#a38342" d="M 132.5,438.5 C 135.152,438.41 137.485,439.076 139.5,440.5C 136.848,440.59 134.515,439.924 132.5,438.5 Z"/></g>
<g><path style="opacity:1" fill="#147300" d="M 253.5,525.5 C 254.218,534.482 254.552,543.482 254.5,552.5C 249.561,593.277 227.561,620.11 188.5,633C 146.574,643.027 112.407,631.193 86,597.5C 64.7943,563.229 64.1276,528.563 84,493.5C 110.117,457.567 144.95,444.733 188.5,455C 218.75,464.917 239.584,484.75 251,514.5C 252.31,518.07 253.143,521.737 253.5,525.5 Z"/></g>
<g><path style="opacity:1" fill="#0e5001" d="M 253.5,525.5 C 254.931,530.933 255.598,536.599 255.5,542.5C 255.498,546.018 255.165,549.351 254.5,552.5C 254.552,543.482 254.218,534.482 253.5,525.5 Z"/></g>
<g><path style="opacity:0.988" fill="#cbcbcb" d="M 196.5,673.5 C 197.556,706.504 198.389,739.504 199,772.5C 194.214,789.46 183.047,797.793 165.5,797.5C 147.854,799.597 135.021,792.931 127,777.5C 126.094,773.721 125.594,769.888 125.5,766C 126.56,735.165 127.56,704.332 128.5,673.5C 151.167,672.167 173.833,672.167 196.5,673.5 Z"/></g>
</svg>
