<?xml version="1.0" encoding="UTF-8"?>
<svg version="1.1" viewBox="0 0 1600 1600" width="1280" height="1280" xmlns="http://www.w3.org/2000/svg">
<path transform="translate(398,233)" d="m0 0h804l18 2 19 5 19 8 16 10 11 9 13 13 11 15 10 19 7 21 73 292 1-35 4-16 6-12 7-9 7-7 11-7 11-5 16-3h108l13 4 9 7 6 10 2 7v47l-4 16-6 12-8 10-10 9-15 8-11 3-8 1h-112l14 19 16 21 12 17 12 21 8 19 6 19 4 19 2 18v552l-3 9-6 9-9 7-10 3h-211l-11-4-8-6-6-9-3-11v-103h-866v103l-4 13-7 9-10 6-7 2h-211l-9-3-9-6-6-8-3-6-1-5v-552l3-24 5-20 7-20 9-19 10-16 14-19 16-21 10-14h-112l-16-3-16-8-9-7-9-10-7-12-4-13-1-6v-47l4-11 6-8 9-6 11-3h108l16 3 16 8 9 7 9 10 7 12 4 13 1 6 1 35 73-292 7-21 10-19 9-12 9-10 9-9 14-10 16-9 19-7 19-4z" fill="#41A1EC"/>
<path transform="translate(396,300)" d="m0 0h808l16 4 12 6 10 8 9 10 8 16 7 26 73 292 2 5h-1082l3-9 77-308 5-13 6-10 9-10 12-9 12-5z" fill="#2C7AD2"/>
<path transform="translate(1499,1209)" d="m0 0h1v163l-3 9-6 9-9 7-10 3h-211l-11-4-8-6-6-9-2-6v-108l206-1 14-3 12-5 11-8 8-8 7-11 5-12z" fill="#565B5E"/>
<path transform="translate(100,1209)" d="m0 0h1l4 16 7 13 11 12 8 6 12 6 10 3 7 1 206 1v108l-4 9-6 8-10 6-7 2h-211l-9-3-9-6-6-8-3-6-1-5z" fill="#555B5E"/>
<path transform="translate(1132,832)" d="m0 0h207l6 5 1 2v98l-5 6-2 1h-207l-6-5-1-2v-98l5-6z" fill="#FF6363"/>
<path transform="translate(258,832)" d="m0 0h207l6 5 1 2v98l-5 6-2 1h-207l-6-5-1-2v-98l5-6z" fill="#FF6363"/>
</svg>
