<?xml version="1.0" encoding="UTF-8"?>
<!DOCTYPE svg PUBLIC "-//W3C//DTD SVG 1.1//EN" "http://www.w3.org/Graphics/SVG/1.1/DTD/svg11.dtd">
<svg xmlns="http://www.w3.org/2000/svg" version="1.1" width="326px" height="800px" style="shape-rendering:geometricPrecision; text-rendering:geometricPrecision; image-rendering:optimizeQuality; fill-rule:evenodd; clip-rule:evenodd" xmlns:xlink="http://www.w3.org/1999/xlink">
<g><path style="opacity:0.987" fill="#c9c9c9" d="M 179.5,27.5 C 179.389,28.1174 179.056,28.6174 178.5,29C 173,29.1667 167.5,29.3333 162,29.5C 156.124,29.4952 150.624,28.8286 145.5,27.5C 143.431,17.1377 146.764,8.97106 155.5,3C 164.369,0.185764 171.536,2.68576 177,10.5C 178.163,16.103 178.996,21.7697 179.5,27.5 Z"/></g>
<g><path style="opacity:0.987" fill="#000000" d="M 145.5,27.5 C 150.624,28.8286 156.124,29.4952 162,29.5C 167.5,29.3333 173,29.1667 178.5,29C 179.056,28.6174 179.389,28.1174 179.5,27.5C 245.419,31.9577 291.586,64.2911 318,124.5C 320.073,130.053 321.74,135.72 323,141.5C 323.667,280.833 323.667,420.167 323,559.5C 308.006,615.496 272.84,652.329 217.5,670C 210.651,672.137 203.651,673.303 196.5,673.5C 173.833,672.167 151.167,672.167 128.5,673.5C 71.157,663.97 30.9903,632.637 8,579.5C 5.92837,573.952 4.26171,568.285 3,562.5C 1.34323,424.863 1.0099,287.196 2,149.5C 15.7151,84.1181 55.2151,44.2848 120.5,30C 128.868,29.2416 137.201,28.4082 145.5,27.5 Z"/></g>
<g><path style="opacity:1" fill="#232323" d="M 149.5,66.5 C 188.689,63.6996 219.189,78.3663 241,110.5C 260.726,146.698 258.726,181.698 235,215.5C 209.373,245.265 177.206,256.098 138.5,248C 109.218,239.362 88.5517,221.029 76.5,193C 61.354,145.539 74.0206,107.539 114.5,79C 125.631,73.0903 137.298,68.9236 149.5,66.5 Z"/></g>
<g><path style="opacity:1" fill="#232323" d="M 149.5,258.5 C 197.903,256.122 231.403,277.122 250,321.5C 261.037,362.051 250.87,396.217 219.5,424C 182.568,448.976 145.235,449.643 107.5,426C 72.139,396.748 61.639,360.248 76,316.5C 90.6889,284.636 115.189,265.302 149.5,258.5 Z"/></g>
<g><path style="opacity:1" fill="#147300" d="M 253.5,525.5 C 254.218,534.482 254.552,543.482 254.5,552.5C 249.561,593.277 227.561,620.11 188.5,633C 146.574,643.027 112.407,631.193 86,597.5C 64.7943,563.229 64.1276,528.563 84,493.5C 110.117,457.567 144.95,444.733 188.5,455C 218.75,464.917 239.584,484.75 251,514.5C 252.31,518.07 253.143,521.737 253.5,525.5 Z"/></g>
<g><path style="opacity:1" fill="#0e5001" d="M 253.5,525.5 C 254.931,530.933 255.598,536.599 255.5,542.5C 255.498,546.018 255.165,549.351 254.5,552.5C 254.552,543.482 254.218,534.482 253.5,525.5 Z"/></g>
<g><path style="opacity:0.988" fill="#cbcbcb" d="M 196.5,673.5 C 197.556,706.504 198.389,739.504 199,772.5C 194.214,789.46 183.047,797.793 165.5,797.5C 147.854,799.597 135.021,792.931 127,777.5C 126.094,773.721 125.594,769.888 125.5,766C 126.56,735.165 127.56,704.332 128.5,673.5C 151.167,672.167 173.833,672.167 196.5,673.5 Z"/></g>
</svg>
