<?xml version="1.0" encoding="UTF-8"?>
<!DOCTYPE svg PUBLIC "-//W3C//DTD SVG 1.1//EN" "http://www.w3.org/Graphics/SVG/1.1/DTD/svg11.dtd">
<svg xmlns="http://www.w3.org/2000/svg" version="1.1" width="326px" height="800px" style="shape-rendering:geometricPrecision; text-rendering:geometricPrecision; image-rendering:optimizeQuality; fill-rule:evenodd; clip-rule:evenodd" xmlns:xlink="http://www.w3.org/1999/xlink">
<g><path style="opacity:0.987" fill="#c9c9c9" d="M 179.5,27.5 C 179.389,28.1174 179.056,28.6174 178.5,29C 173,29.1667 167.5,29.3333 162,29.5C 156.124,29.4952 150.624,28.8286 145.5,27.5C 143.431,17.1377 146.764,8.97106 155.5,3C 164.369,0.185764 171.536,2.68576 177,10.5C 178.163,16.103 178.996,21.7697 179.5,27.5 Z"/></g>
<g><path style="opacity:0.987" fill="#000000" d="M 145.5,27.5 C 150.624,28.8286 156.124,29.4952 162,29.5C 167.5,29.3333 173,29.1667 178.5,29C 179.056,28.6174 179.389,28.1174 179.5,27.5C 245.419,31.9577 291.586,64.2911 318,124.5C 320.073,130.053 321.74,135.72 323,141.5C 323.667,280.833 323.667,420.167 323,559.5C 308.006,615.496 272.84,652.329 217.5,670C 210.651,672.137 203.651,673.303 196.5,673.5C 173.833,672.167 151.167,672.167 128.5,673.5C 71.157,663.97 30.9903,632.637 8,579.5C 5.92837,573.952 4.26171,568.285 3,562.5C 1.34323,424.863 1.0099,287.196 2,149.5C 15.7151,84.1181 55.2151,44.2848 120.5,30C 128.868,29.2416 137.201,28.4082 145.5,27.5 Z"/></g>
<g><path style="opacity:1" fill="#fd0000" d="M 178.5,67.5 C 178.611,68.1174 178.944,68.6174 179.5,69C 183.514,69.8374 187.514,70.6708 191.5,71.5C 206.09,76.4612 218.757,84.4612 229.5,95.5C 229.427,97.0269 230.094,98.0269 231.5,98.5C 237.728,104.406 242.395,111.406 245.5,119.5C 245.166,122.491 246.166,124.824 248.5,126.5C 249.301,128.042 249.634,129.708 249.5,131.5C 252.567,147.372 253.234,163.372 251.5,179.5C 244.381,206.939 228.381,227.272 203.5,240.5C 201.326,240.75 199.659,241.75 198.5,243.5C 197.833,243.5 197.167,243.5 196.5,243.5C 193.053,244.083 190.053,245.416 187.5,247.5C 173.604,250.522 159.604,251.188 145.5,249.5C 143.898,247.926 141.898,247.259 139.5,247.5C 139.167,247.5 138.833,247.5 138.5,247.5C 136.485,246.076 134.152,245.41 131.5,245.5C 129.5,244.833 127.5,244.167 125.5,243.5C 125.027,242.094 124.027,241.427 122.5,241.5C 114.749,238.733 108.083,234.4 102.5,228.5C 101.415,226.413 99.7488,225.08 97.5,224.5C 93.1256,220.128 89.1256,215.461 85.5,210.5C 85.573,208.973 84.9063,207.973 83.5,207.5C 79.7192,200.069 76.3859,192.402 73.5,184.5C 72.4915,179.717 71.4915,175.05 70.5,170.5C 70.5,170.167 70.5,169.833 70.5,169.5C 70.41,159.482 70.7433,149.482 71.5,139.5C 71.5,139.167 71.5,138.833 71.5,138.5C 73.4725,135.916 74.4725,132.916 74.5,129.5C 75.4412,124.06 77.4412,119.06 80.5,114.5C 81.9063,114.027 82.573,113.027 82.5,111.5C 83.7589,107.975 85.7589,104.975 88.5,102.5C 90.5869,101.415 91.9202,99.7488 92.5,97.5C 100.458,87.8701 110.125,80.5367 121.5,75.5C 127.983,73.4185 134.316,71.0852 140.5,68.5C 152.995,66.3168 165.662,65.9834 178.5,67.5 Z"/></g>
<g><path style="opacity:1" fill="#b40002" d="M 178.5,67.5 C 183.169,68.0901 187.503,69.4234 191.5,71.5C 187.514,70.6708 183.514,69.8374 179.5,69C 178.944,68.6174 178.611,68.1174 178.5,67.5 Z"/></g>
<g><path style="opacity:1" fill="#a80003" d="M 140.5,68.5 C 134.316,71.0852 127.983,73.4185 121.5,75.5C 127.248,71.8037 133.581,69.4703 140.5,68.5 Z"/></g>
<g><path style="opacity:1" fill="#930003" d="M 229.5,95.5 C 230.906,95.9731 231.573,96.9731 231.5,98.5C 230.094,98.0269 229.427,97.0269 229.5,95.5 Z"/></g>
<g><path style="opacity:1" fill="#970003" d="M 92.5,97.5 C 91.9202,99.7488 90.5869,101.415 88.5,102.5C 89.0798,100.251 90.4131,98.5846 92.5,97.5 Z"/></g>
<g><path style="opacity:1" fill="#830002" d="M 82.5,111.5 C 82.573,113.027 81.9063,114.027 80.5,114.5C 80.427,112.973 81.0937,111.973 82.5,111.5 Z"/></g>
<g><path style="opacity:1" fill="#9e0003" d="M 245.5,119.5 C 247.065,121.509 248.065,123.843 248.5,126.5C 246.166,124.824 245.166,122.491 245.5,119.5 Z"/></g>
<g><path style="opacity:1" fill="#a80003" d="M 74.5,129.5 C 74.4725,132.916 73.4725,135.916 71.5,138.5C 71.6896,135.145 72.6896,132.145 74.5,129.5 Z"/></g>
<g><path style="opacity:1" fill="#b20003" d="M 249.5,131.5 C 252.741,139.202 254.408,147.369 254.5,156C 254.262,164.071 253.262,171.905 251.5,179.5C 253.234,163.372 252.567,147.372 249.5,131.5 Z"/></g>
<g><path style="opacity:1" fill="#950001" d="M 71.5,139.5 C 70.7433,149.482 70.41,159.482 70.5,169.5C 69.3431,161.01 69.1764,152.343 70,143.5C 70.21,141.942 70.71,140.609 71.5,139.5 Z"/></g>
<g><path style="opacity:1" fill="#690102" d="M 70.5,170.5 C 71.4915,175.05 72.4915,179.717 73.5,184.5C 71.0439,180.262 70.0439,175.596 70.5,170.5 Z"/></g>
<g><path style="opacity:1" fill="#580101" d="M 83.5,207.5 C 84.9063,207.973 85.573,208.973 85.5,210.5C 84.0937,210.027 83.427,209.027 83.5,207.5 Z"/></g>
<g><path style="opacity:1" fill="#990003" d="M 97.5,224.5 C 99.7488,225.08 101.415,226.413 102.5,228.5C 100.251,227.92 98.5846,226.587 97.5,224.5 Z"/></g>
<g><path style="opacity:1" fill="#390800" d="M 203.5,240.5 C 202.514,242.408 200.848,243.408 198.5,243.5C 199.659,241.75 201.326,240.75 203.5,240.5 Z"/></g>
<g><path style="opacity:1" fill="#6b0002" d="M 122.5,241.5 C 124.027,241.427 125.027,242.094 125.5,243.5C 123.973,243.573 122.973,242.906 122.5,241.5 Z"/></g>
<g><path style="opacity:1" fill="#830002" d="M 131.5,245.5 C 134.152,245.41 136.485,246.076 138.5,247.5C 135.848,247.59 133.515,246.924 131.5,245.5 Z"/></g>
<g><path style="opacity:1" fill="#4b0301" d="M 196.5,243.5 C 193.947,245.584 190.947,246.917 187.5,247.5C 190.053,245.416 193.053,244.083 196.5,243.5 Z"/></g>
<g><path style="opacity:1" fill="#6a0102" d="M 139.5,247.5 C 141.898,247.259 143.898,247.926 145.5,249.5C 143.102,249.741 141.102,249.074 139.5,247.5 Z"/></g>
<g><path style="opacity:1" fill="#232323" d="M 149.5,258.5 C 197.903,256.122 231.403,277.122 250,321.5C 261.037,362.051 250.87,396.217 219.5,424C 182.568,448.976 145.235,449.643 107.5,426C 72.139,396.748 61.639,360.248 76,316.5C 90.6889,284.636 115.189,265.302 149.5,258.5 Z"/></g>
<g><path style="opacity:1" fill="#232323" d="M 149.5,451.5 C 197.903,449.122 231.403,470.122 250,514.5C 261.037,555.051 250.87,589.217 219.5,617C 182.568,641.976 145.235,642.643 107.5,619C 72.139,589.748 61.639,553.248 76,509.5C 90.6889,477.636 115.189,458.302 149.5,451.5 Z"/></g>
<g><path style="opacity:0.988" fill="#cbcbcb" d="M 196.5,673.5 C 197.556,706.504 198.389,739.504 199,772.5C 194.214,789.46 183.047,797.793 165.5,797.5C 147.854,799.597 135.021,792.931 127,777.5C 126.094,773.721 125.594,769.888 125.5,766C 126.56,735.165 127.56,704.332 128.5,673.5C 151.167,672.167 173.833,672.167 196.5,673.5 Z"/></g>
</svg>
