<?xml version="1.0" encoding="UTF-8"?>
<!DOCTYPE svg PUBLIC "-//W3C//DTD SVG 1.1//EN" "http://www.w3.org/Graphics/SVG/1.1/DTD/svg11.dtd">
<svg xmlns="http://www.w3.org/2000/svg" version="1.1" width="326px" height="800px" style="shape-rendering:geometricPrecision; text-rendering:geometricPrecision; image-rendering:optimizeQuality; fill-rule:evenodd; clip-rule:evenodd" xmlns:xlink="http://www.w3.org/1999/xlink">
<g><path style="opacity:0.987" fill="#c9c9c9" d="M 179.5,27.5 C 179.389,28.1174 179.056,28.6174 178.5,29C 173,29.1667 167.5,29.3333 162,29.5C 156.124,29.4952 150.624,28.8286 145.5,27.5C 143.431,17.1377 146.764,8.97106 155.5,3C 164.369,0.185764 171.536,2.68576 177,10.5C 178.163,16.103 178.996,21.7697 179.5,27.5 Z"/></g>
<g><path style="opacity:0.987" fill="#000000" d="M 145.5,27.5 C 150.624,28.8286 156.124,29.4952 162,29.5C 167.5,29.3333 173,29.1667 178.5,29C 179.056,28.6174 179.389,28.1174 179.5,27.5C 245.419,31.9577 291.586,64.2911 318,124.5C 320.073,130.053 321.74,135.72 323,141.5C 323.667,280.833 323.667,420.167 323,559.5C 308.006,615.496 272.84,652.329 217.5,670C 210.651,672.137 203.651,673.303 196.5,673.5C 173.833,672.167 151.167,672.167 128.5,673.5C 71.157,663.97 30.9903,632.637 8,579.5C 5.92837,573.952 4.26171,568.285 3,562.5C 1.34323,424.863 1.0099,287.196 2,149.5C 15.7151,84.1181 55.2151,44.2848 120.5,30C 128.868,29.2416 137.201,28.4082 145.5,27.5 Z"/></g>
<g><path style="opacity:1" fill="#232323" d="M 149.5,66.5 C 188.689,63.6996 219.189,78.3663 241,110.5C 260.726,146.698 258.726,181.698 235,215.5C 209.373,245.265 177.206,256.098 138.5,248C 109.218,239.362 88.5517,221.029 76.5,193C 61.354,145.539 74.0206,107.539 114.5,79C 125.631,73.0903 137.298,68.9236 149.5,66.5 Z"/></g>
<g><path style="opacity:1" fill="#896d36" d="M 154.5,258.5 C 151.026,259.525 147.36,260.192 143.5,260.5C 146.845,258.783 150.511,258.116 154.5,258.5 Z"/></g>
<g><path style="opacity:1" fill="#45371d" d="M 170.5,258.5 C 173.518,258.335 176.518,258.502 179.5,259C 180.416,259.278 181.082,259.778 181.5,260.5C 177.64,260.192 173.974,259.525 170.5,258.5 Z"/></g>
<g><path style="opacity:1" fill="#fdc85b" d="M 154.5,258.5 C 159.833,258.5 165.167,258.5 170.5,258.5C 173.974,259.525 177.64,260.192 181.5,260.5C 219.568,269.901 243.234,293.568 252.5,331.5C 252.41,334.152 253.076,336.485 254.5,338.5C 257.118,382.449 239.118,414.615 200.5,435C 180.653,443.97 160.319,445.803 139.5,440.5C 137.485,439.076 135.152,438.41 132.5,438.5C 103.845,428.011 84.345,408.345 74,379.5C 68.7912,362.556 68.2912,345.556 72.5,328.5C 73.9238,326.485 74.5905,324.152 74.5,321.5C 84.4279,293.239 103.428,273.905 131.5,263.5C 134.152,263.59 136.485,262.924 138.5,261.5C 140.042,260.699 141.708,260.366 143.5,260.5C 147.36,260.192 151.026,259.525 154.5,258.5 Z"/></g>
<g><path style="opacity:1" fill="#a3823f" d="M 138.5,261.5 C 136.485,262.924 134.152,263.59 131.5,263.5C 133.515,262.076 135.848,261.41 138.5,261.5 Z"/></g>
<g><path style="opacity:1" fill="#af8c44" d="M 74.5,321.5 C 74.5905,324.152 73.9238,326.485 72.5,328.5C 72.4095,325.848 73.0762,323.515 74.5,321.5 Z"/></g>
<g><path style="opacity:1" fill="#5b4924" d="M 252.5,331.5 C 253.924,333.515 254.59,335.848 254.5,338.5C 253.076,336.485 252.41,334.152 252.5,331.5 Z"/></g>
<g><path style="opacity:1" fill="#a38342" d="M 132.5,438.5 C 135.152,438.41 137.485,439.076 139.5,440.5C 136.848,440.59 134.515,439.924 132.5,438.5 Z"/></g>
<g><path style="opacity:1" fill="#232323" d="M 147.5,451.5 C 196.928,448.272 231.095,469.272 250,514.5C 260.114,552.483 251.281,585.316 223.5,613C 193.117,637.063 159.784,642.063 123.5,628C 89.2072,610.488 71.2072,582.321 69.5,543.5C 71.6069,503.589 90.6069,475.089 126.5,458C 133.56,455.658 140.56,453.491 147.5,451.5 Z"/></g>
<g><path style="opacity:0.988" fill="#cbcbcb" d="M 196.5,673.5 C 197.556,706.504 198.389,739.504 199,772.5C 194.214,789.46 183.047,797.793 165.5,797.5C 147.854,799.597 135.021,792.931 127,777.5C 126.094,773.721 125.594,769.888 125.5,766C 126.56,735.165 127.56,704.332 128.5,673.5C 151.167,672.167 173.833,672.167 196.5,673.5 Z"/></g>
</svg>
